<svg xmlns="http://www.w3.org/2000/svg" xmlns:xlink="http://www.w3.org/1999/xlink" width="16px" height="21px" viewBox="0 0 16 21" version="1.1">
<g id="surface1">
<path style=" stroke:none;fill-rule:nonzero;fill:#f40334;fill-opacity:1;" d="M 7.78125 0.0078125 C 9.652344 0.0078125 11.28125 1.019531 12.582031 2.589844 C 14.015625 4.316406 15.0625 6.738281 15.597656 9.203125 C 15.617188 9.324219 15.589844 9.449219 15.515625 9.546875 C 15.441406 9.648438 15.328125 9.710938 15.207031 9.726562 C 15.175781 9.730469 15.140625 9.730469 15.109375 9.726562 L 14.9375 9.726562 C 14.847656 9.726562 14.753906 9.703125 14.675781 9.660156 L 12.066406 8.394531 L 9.75 9.71875 C 9.546875 9.832031 9.289062 9.800781 9.121094 9.636719 L 7.449219 8.160156 L 4.511719 9.695312 C 4.355469 9.777344 4.167969 9.777344 4.011719 9.695312 L 0.945312 8.265625 C 0.742188 8.183594 0.636719 7.964844 0.695312 7.753906 C 1.308594 5.59375 2.3125 3.59375 3.574219 2.175781 C 4.769531 0.839844 6.195312 0.0078125 7.78125 0.0078125 Z M 4.109375 6.6875 C 4.015625 6.878906 3.792969 6.972656 3.59375 6.902344 C 3.496094 6.875 3.414062 6.808594 3.371094 6.71875 C 3.324219 6.628906 3.320312 6.523438 3.355469 6.429688 C 3.570312 5.914062 3.824219 5.417969 4.121094 4.941406 C 4.398438 4.492188 4.714844 4.074219 5.070312 3.683594 C 5.222656 3.527344 5.464844 3.507812 5.640625 3.636719 C 5.722656 3.695312 5.773438 3.78125 5.785156 3.882812 C 5.792969 3.980469 5.761719 4.078125 5.691406 4.148438 C 5.367188 4.503906 5.074219 4.890625 4.816406 5.300781 C 4.542969 5.746094 4.304688 6.210938 4.105469 6.691406 Z M 6.726562 3.253906 C 6.542969 3.371094 6.300781 3.335938 6.15625 3.175781 C 6.09375 3.097656 6.066406 2.996094 6.082031 2.898438 C 6.097656 2.800781 6.160156 2.714844 6.246094 2.660156 C 6.355469 2.589844 6.464844 2.523438 6.574219 2.460938 C 6.683594 2.398438 6.796875 2.339844 6.917969 2.289062 C 7.117188 2.195312 7.351562 2.265625 7.464844 2.445312 C 7.515625 2.535156 7.523438 2.636719 7.492188 2.730469 C 7.457031 2.824219 7.386719 2.902344 7.292969 2.941406 C 7.203125 2.984375 7.109375 3.03125 7.011719 3.085938 C 6.914062 3.136719 6.824219 3.195312 6.734375 3.257812 Z M 11.792969 3.117188 C 10.671875 1.765625 9.304688 0.898438 7.78125 0.898438 C 6.527344 0.898438 5.351562 1.601562 4.339844 2.730469 C 3.226562 3.976562 2.328125 5.726562 1.742188 7.632812 L 4.246094 8.792969 L 7.273438 7.210938 C 7.46875 7.109375 7.703125 7.136719 7.871094 7.277344 L 9.546875 8.765625 L 11.769531 7.492188 C 11.925781 7.40625 12.113281 7.398438 12.269531 7.476562 L 14.410156 8.519531 C 13.867188 6.476562 12.960938 4.539062 11.785156 3.121094 Z M 15.910156 11.46875 C 16.070312 12.777344 16.027344 14.101562 15.773438 15.398438 C 15.566406 16.46875 15.085938 17.464844 14.378906 18.300781 C 14.242188 18.464844 14.09375 18.617188 13.9375 18.765625 C 12.429688 20.195312 10.300781 20.929688 8.179688 20.988281 C 6.058594 21.042969 3.9375 20.421875 2.457031 19.140625 C 2.3125 19.015625 2.171875 18.882812 2.039062 18.746094 C 1.082031 17.75 0.492188 16.464844 0.203125 15.007812 C -0.101562 13.46875 -0.0585938 11.710938 0.265625 9.902344 C 0.324219 9.652344 0.574219 9.488281 0.832031 9.535156 C 0.890625 9.542969 0.949219 9.558594 1.003906 9.585938 L 4.257812 11.0625 L 7.292969 9.542969 C 7.476562 9.453125 7.695312 9.472656 7.859375 9.597656 L 9.695312 11.035156 L 11.761719 9.738281 C 11.914062 9.640625 12.109375 9.628906 12.277344 9.703125 L 15.625 11.070312 C 15.792969 11.132812 15.90625 11.285156 15.917969 11.464844 Z M 14.800781 15.230469 C 15.019531 14.097656 15.070312 12.9375 14.949219 11.789062 L 12.09375 10.617188 L 9.9375 11.972656 C 9.75 12.085938 9.507812 12.074219 9.332031 11.941406 L 7.464844 10.476562 L 4.507812 11.960938 C 4.363281 12.03125 4.191406 12.035156 4.046875 11.96875 L 1.144531 10.652344 C 0.925781 12.042969 0.9375 13.464844 1.179688 14.851562 C 1.4375 16.160156 1.957031 17.296875 2.789062 18.164062 C 2.898438 18.277344 3.015625 18.390625 3.132812 18.496094 C 4.421875 19.605469 6.277344 20.148438 8.148438 20.09375 C 10.019531 20.042969 11.894531 19.402344 13.21875 18.152344 C 13.351562 18.023438 13.480469 17.890625 13.597656 17.757812 C 14.210938 17.027344 14.625 16.160156 14.800781 15.230469 Z M 14.800781 15.230469 "/>
</g>
</svg>