<?xml version="1.0" encoding="UTF-8"?>
<svg xmlns="http://www.w3.org/2000/svg" xmlns:xlink="http://www.w3.org/1999/xlink" width="16px" height="16px" viewBox="0 0 16 16" version="1.1">
<g id="surface1">
<path style=" stroke:none;fill-rule:nonzero;fill:rgb(95.686275%,26.27451%,21.176471%);fill-opacity:1;" d="M 0.890625 16 L 4.445312 16 C 4.679688 16 4.90625 15.90625 5.074219 15.738281 C 5.238281 15.574219 5.332031 15.34375 5.332031 15.109375 L 5.332031 12.445312 L 8 12.445312 C 8.234375 12.445312 8.464844 12.351562 8.628906 12.183594 C 8.792969 12.019531 8.890625 11.789062 8.890625 11.554688 L 8.890625 8.890625 L 11.554688 8.890625 C 11.789062 8.890625 12.019531 8.792969 12.183594 8.628906 C 12.347656 8.464844 12.445312 8.234375 12.445312 8 L 12.445312 5.335938 L 15.109375 5.335938 C 15.601562 5.335938 16 4.9375 16 4.445312 C 16 3.953125 15.601562 3.554688 15.109375 3.554688 L 11.554688 3.554688 C 11.320312 3.554688 11.09375 3.652344 10.925781 3.816406 C 10.761719 3.984375 10.667969 4.210938 10.667969 4.445312 L 10.667969 7.113281 L 8 7.113281 C 7.765625 7.113281 7.539062 7.207031 7.371094 7.371094 C 7.207031 7.539062 7.113281 7.765625 7.113281 8 L 7.113281 10.667969 L 4.445312 10.667969 C 4.210938 10.667969 3.980469 10.761719 3.816406 10.925781 C 3.652344 11.09375 3.554688 11.320312 3.554688 11.554688 L 3.554688 14.222656 L 0.890625 14.222656 C 0.398438 14.222656 0 14.621094 0 15.109375 C 0 15.601562 0.398438 16 0.890625 16 Z M 0.890625 16 "/>
<path style=" stroke:none;fill-rule:nonzero;fill:rgb(95.686275%,26.27451%,21.176471%);fill-opacity:1;" d="M 1.515625 7.738281 L 6.222656 3.035156 L 6.222656 4.445312 C 6.222656 4.9375 6.621094 5.332031 7.109375 5.332031 C 7.601562 5.332031 8 4.933594 8 4.445312 L 8 0.890625 C 8 0.53125 7.78125 0.203125 7.449219 0.0664062 C 7.117188 -0.0703125 6.738281 0.0078125 6.480469 0.261719 L 0.261719 6.484375 C -0.0859375 6.828125 -0.0859375 7.390625 0.261719 7.738281 C 0.609375 8.085938 1.171875 8.085938 1.515625 7.738281 Z M 3.554688 1.777344 L 7.109375 1.777344 C 7.601562 1.777344 8 1.378906 8 0.890625 C 8 0.398438 7.601562 0 7.109375 0 L 3.554688 0 C 3.066406 0 2.667969 0.398438 2.667969 0.890625 C 2.667969 1.378906 3.066406 1.777344 3.554688 1.777344 Z M 3.554688 1.777344 "/>
</g>
</svg>
