<?xml version="1.0" encoding="UTF-8"?>
<svg xmlns="http://www.w3.org/2000/svg" xmlns:xlink="http://www.w3.org/1999/xlink" width="16px" height="16px" viewBox="0 0 16 16" version="1.1">
<g id="surface1">
<path style=" stroke:none;fill-rule:nonzero;fill:rgb(95.686275%,26.27451%,21.176471%);fill-opacity:1;" d="M 0.890625 2.667969 L 1.777344 2.667969 C 1.777344 2.175781 2.175781 1.777344 2.667969 1.777344 L 13.332031 1.777344 C 13.824219 1.777344 14.222656 2.175781 14.222656 2.667969 L 14.222656 13.332031 C 14.21875 13.824219 13.824219 14.222656 13.332031 14.222656 L 2.667969 14.222656 C 2.175781 14.222656 1.777344 13.824219 1.777344 13.332031 L 1.777344 2.667969 L 0 2.667969 L 0 13.332031 C 0 14.804688 1.195312 16 2.667969 16 L 13.332031 16 C 14.804688 16 16 14.804688 16 13.332031 L 16 2.667969 C 16 1.195312 14.804688 0 13.332031 0 L 2.667969 0 C 1.195312 0 0 1.195312 0 2.667969 Z M 0.890625 2.667969 "/>
<path style=" stroke:none;fill-rule:nonzero;fill:rgb(95.686275%,26.27451%,21.176471%);fill-opacity:1;" d="M 0.890625 5.332031 L 15.109375 5.332031 C 15.601562 5.332031 16 4.933594 16 4.445312 C 16 3.953125 15.601562 3.554688 15.109375 3.554688 L 0.890625 3.554688 C 0.398438 3.554688 0 3.953125 0 4.445312 C 0 4.933594 0.398438 5.332031 0.890625 5.332031 "/>
<path style=" stroke:none;fill-rule:nonzero;fill:rgb(95.686275%,26.27451%,21.176471%);fill-opacity:1;" d="M 15.109375 7.109375 L 0.890625 7.109375 C 0.398438 7.109375 0 7.507812 0 8 C 0 8.492188 0.398438 8.890625 0.890625 8.890625 L 15.109375 8.890625 C 15.601562 8.890625 16 8.492188 16 8 C 16 7.507812 15.601562 7.109375 15.109375 7.109375 "/>
<path style=" stroke:none;fill-rule:nonzero;fill:rgb(95.686275%,26.27451%,21.176471%);fill-opacity:1;" d="M 0.890625 12.445312 L 15.109375 12.445312 C 15.601562 12.445312 16 12.046875 16 11.554688 C 16 11.066406 15.601562 10.667969 15.109375 10.667969 L 0.890625 10.667969 C 0.398438 10.667969 0 11.066406 0 11.554688 C 0 12.046875 0.398438 12.445312 0.890625 12.445312 "/>
<path style=" stroke:none;fill-rule:nonzero;fill:rgb(95.686275%,26.27451%,21.176471%);fill-opacity:1;" d="M 4.445312 0.890625 L 4.445312 4.445312 C 4.445312 4.933594 4.84375 5.332031 5.332031 5.332031 C 5.824219 5.332031 6.222656 4.933594 6.222656 4.445312 L 6.222656 0.890625 C 6.222656 0.398438 5.824219 0 5.332031 0 C 4.84375 0 4.445312 0.398438 4.445312 0.890625 "/>
<path style=" stroke:none;fill-rule:nonzero;fill:rgb(95.686275%,26.27451%,21.176471%);fill-opacity:1;" d="M 8.890625 4.445312 L 8.890625 8 C 8.890625 8.492188 9.285156 8.890625 9.777344 8.890625 C 10.269531 8.890625 10.667969 8.492188 10.667969 8 L 10.667969 4.445312 C 10.667969 3.953125 10.269531 3.554688 9.777344 3.554688 C 9.285156 3.554688 8.890625 3.953125 8.890625 4.445312 "/>
<path style=" stroke:none;fill-rule:nonzero;fill:rgb(95.686275%,26.27451%,21.176471%);fill-opacity:1;" d="M 3.554688 8 L 3.554688 11.554688 C 3.554688 12.046875 3.953125 12.445312 4.445312 12.445312 C 4.933594 12.445312 5.332031 12.046875 5.332031 11.554688 L 5.332031 8 C 5.332031 7.507812 4.933594 7.109375 4.445312 7.109375 C 3.953125 7.109375 3.554688 7.507812 3.554688 8 "/>
<path style=" stroke:none;fill-rule:nonzero;fill:rgb(95.686275%,26.27451%,21.176471%);fill-opacity:1;" d="M 10.667969 8 L 10.667969 11.554688 C 10.667969 12.046875 11.0625 12.445312 11.554688 12.445312 C 12.046875 12.445312 12.445312 12.046875 12.445312 11.554688 L 12.445312 8 C 12.445312 7.507812 12.046875 7.109375 11.554688 7.109375 C 11.066406 7.109375 10.667969 7.507812 10.667969 8 "/>
<path style=" stroke:none;fill-rule:nonzero;fill:rgb(95.686275%,26.27451%,21.176471%);fill-opacity:1;" d="M 6.222656 11.554688 L 6.222656 15.109375 C 6.222656 15.601562 6.621094 16 7.109375 16 C 7.601562 16 8 15.601562 8 15.109375 L 8 11.554688 C 8 11.066406 7.601562 10.667969 7.109375 10.667969 C 6.621094 10.667969 6.222656 11.066406 6.222656 11.554688 "/>
</g>
</svg>
