<?xml version="1.0" encoding="UTF-8" standalone="no"?>
<!-- Created with Inkscape (http://www.inkscape.org/) -->

<svg
   width="366"
   height="108.931"
   viewBox="0 0 96.837499 28.821329"
   version="1.1"
   id="svg1"
   inkscape:version="1.3 (0e150ed6c4, 2023-07-21)"
   sodipodi:docname="fullscreen_button_pressed.svg"
   xml:space="preserve"
   inkscape:export-filename="fullscreen_button_pressed.svg"
   inkscape:export-xdpi="96"
   inkscape:export-ydpi="96"
   xmlns:inkscape="http://www.inkscape.org/namespaces/inkscape"
   xmlns:sodipodi="http://sodipodi.sourceforge.net/DTD/sodipodi-0.dtd"
   xmlns="http://www.w3.org/2000/svg"
   xmlns:svg="http://www.w3.org/2000/svg"><sodipodi:namedview
     id="namedview1"
     pagecolor="#505050"
     bordercolor="#eeeeee"
     borderopacity="1"
     inkscape:showpageshadow="0"
     inkscape:pageopacity="0"
     inkscape:pagecheckerboard="0"
     inkscape:deskcolor="#505050"
     inkscape:document-units="mm"
     inkscape:zoom="1.105037"
     inkscape:cx="32.125623"
     inkscape:cy="128.95496"
     inkscape:window-width="1920"
     inkscape:window-height="1009"
     inkscape:window-x="-8"
     inkscape:window-y="-8"
     inkscape:window-maximized="1"
     inkscape:current-layer="layer4"
     showgrid="false" /><defs
     id="defs1" /><g
     inkscape:groupmode="layer"
     id="layer4"
     inkscape:label="TEXT BOX"
     transform="translate(-312.5033,-176.62851)"><rect
       style="fill:#ae5d40;stroke:#ae5d40;stroke-width:4.17337;stroke-linecap:round;stroke-linejoin:round;paint-order:stroke markers fill"
       id="rect54"
       width="92.381432"
       height="19.375973"
       x="314.73132"
       y="183.98709"
       rx="5.34654" /><rect
       style="fill:#c77b58;stroke:#c77b58;stroke-width:4.17337;stroke-linecap:round;stroke-linejoin:round;paint-order:stroke markers fill"
       id="rect53"
       width="92.381432"
       height="19.375973"
       x="314.73132"
       y="181.36099"
       rx="7.8896642" /><path
       d="m 325.40014,195.4739 q -0.2667,0 -0.4572,-0.1778 -0.17779,-0.1905 -0.17779,-0.4572 v -7.3279 q 0,-0.2667 0.17779,-0.4445 0.1905,-0.1905 0.4572,-0.1905 h 5.0673 q 0.2667,0 0.4445,0.1905 0.1778,0.1778 0.1778,0.4445 0,0.254 -0.1778,0.4445 -0.1778,0.1905 -0.4445,0.1905 h -4.4323 v 2.1844 h 3.3782 q 0.2667,0 0.4445,0.1905 0.1778,0.1905 0.1778,0.4572 0,0.254 -0.1778,0.4445 -0.1778,0.1778 -0.4445,0.1778 h -3.3782 v 3.2385 q 0,0.2667 -0.19049,0.4572 -0.1778,0.1778 -0.44451,0.1778 z m 9.9187,-0.0127 q -1.0541,0 -1.8161,-0.5842 -0.7493,-0.5842 -1.16841,-1.6383 -0.4064,-1.0541 -0.4572,-2.4384 -0.0254,-1.0668 -0.0254,-1.4478 l 0.0127,-0.9779 q 0.0127,-0.3175 0.0127,-0.9652 0,-0.2032 0.1524,-0.3937 0.1651,-0.2032 0.508,-0.2032 0.3302,0 0.4699,0.2032 0.1397,0.1905 0.1397,0.4064 l -0.0127,0.9144 q -0.0127,0.2667 -0.0127,0.8128 0,0.4064 0.0254,1.4732 0.0508,1.6129 0.54611,2.6416 0.50799,1.0287 1.651,1.0287 0.889,0 1.5113,-0.5588 0.6223,-0.5715 0.762,-1.8034 0.1143,-1.0922 0.1143,-2.4511 l -0.0127,-2.032 q 0,-0.2286 0.1397,-0.4318 0.1397,-0.2032 0.4953,-0.2032 0.3556,0 0.4826,0.2032 0.1397,0.1905 0.1397,0.4064 l 0.0127,0.3556 q 0.0381,1.2954 0.0381,1.7653 0,1.3081 -0.1524,2.4892 -0.2159,1.6129 -1.0795,2.5273 -0.86361,0.9017 -2.4765,0.9017 z m 5.94361,-0.0127 q -0.24131,0.0127 -0.43181,-0.1778 -0.19049,-0.1905 -0.19049,-0.4318 v -7.4041 q 0,-0.254 0.17779,-0.4318 0.1905,-0.1905 0.4572,-0.1905 0.25401,0 0.43181,0.1905 0.19049,0.1778 0.19049,0.4318 v 6.731 l 3.45441,-0.2286 q 0.2667,-0.0127 0.4445,0.1651 0.1778,0.1651 0.1778,0.4445 0,0.2286 -0.1778,0.4318 -0.1651,0.1905 -0.39371,0.2032 z m 6.5151,0 q -0.24131,0.0127 -0.4318,-0.1778 -0.1905,-0.1905 -0.1905,-0.4318 v -7.4041 q 0,-0.254 0.1778,-0.4318 0.1905,-0.1905 0.4572,-0.1905 0.254,0 0.4318,0.1905 0.1905,0.1778 0.1905,0.4318 v 6.731 l 3.4544,-0.2286 q 0.2667,-0.0127 0.4445,0.1651 0.1778,0.1651 0.1778,0.4445 0,0.2286 -0.1778,0.4318 -0.1651,0.1905 -0.3937,0.2032 z m 8.36931,0.0127 q -1.0922,0 -1.905,-0.4826 -0.8001,-0.4826 -1.1303,-1.1811 -0.1397,-0.3048 -0.1397,-0.4953 0,-0.2667 0.1905,-0.4445 0.1905,-0.1905 0.4572,-0.1905 0.2286,0 0.3937,0.127 0.1651,0.127 0.2413,0.3429 0.2032,0.5461 0.7493,0.8382 0.5461,0.2921 1.1684,0.2921 0.7874,0 1.2954,-0.3683 0.5207,-0.381 0.5207,-0.9271 0,-0.4191 -0.4191,-0.762 -0.4064,-0.3429 -1.397,-0.6223 -1.2827,-0.3556 -2.0193,-0.9144 -0.7366,-0.5715 -0.7366,-1.5621 0,-0.6731 0.3556,-1.1938 0.3683,-0.5334 1.0414,-0.8255 0.6731,-0.2921 1.5748,-0.2921 1.29539,0 2.032,0.508 0.7493,0.508 0.7493,1.3589 0,0.2794 -0.1778,0.4699 -0.1778,0.1905 -0.4445,0.1905 -0.2286,0 -0.39371,-0.1524 -0.16509,-0.1524 -0.19049,-0.381 -0.0508,-0.3556 -0.4699,-0.5842 -0.41911,-0.2413 -1.1049,-0.2413 -0.8509,0 -1.2954,0.2921 -0.4445,0.2794 -0.4445,0.762 0,0.4445 0.4572,0.7493 0.4572,0.3048 1.4986,0.6096 1.2827,0.3683 1.9431,0.9906 0.6604,0.6223 0.6604,1.5367 0,0.7112 -0.4191,1.2954 -0.4191,0.5842 -1.1303,0.9271 -0.6985,0.3302 -1.5113,0.3302 z m 7.72158,0 q -1.016,0 -1.86689,-0.4572 -0.85091,-0.4572 -1.34621,-1.3208 -0.49529,-0.8763 -0.49529,-2.0447 0,-1.2319 0.5715,-2.3495 0.5842,-1.1303 1.4986,-1.8034 0.9271,-0.6858 1.8923,-0.6858 0.4064,0 0.8001,0.127 0.4064,0.127 0.7239,0.3175 0.1524,-0.1524 0.38099,-0.1524 0.25401,0 0.41911,0.1778 0.16509,0.1651 0.16509,0.4064 v 0.8128 q 0,0.254 -0.19049,0.4445 -0.1778,0.1905 -0.4445,0.1905 -0.25401,0 -0.43181,-0.1524 -0.16509,-0.1524 -0.16509,-0.3556 v -0.0889 q -0.4699,-0.4953 -1.34621,-0.4953 -0.63499,0 -1.2446,0.5207 -0.6096,0.508 -0.99059,1.3462 -0.3683,0.8382 -0.3683,1.7399 0,0.8001 0.3302,1.397 0.3302,0.5842 0.8763,0.9017 0.5588,0.3048 1.2319,0.3048 1.2319,0 2.032,-1.0541 0.1143,-0.1397 0.2286,-0.1905 0.1143,-0.0635 0.2667,-0.0635 0.2667,0 0.4445,0.1778 0.1905,0.1651 0.1905,0.4572 0,0.2159 -0.11431,0.381 -0.52069,0.7366 -1.3208,1.1303 -0.7874,0.381 -1.7272,0.381 z m 4.99111,0 q -0.26671,0 -0.4445,-0.1778 -0.1778,-0.1778 -0.1778,-0.4445 v -7.2771 q 0,-0.3429 0.0635,-0.4953 0.0762,-0.1524 0.27941,-0.2032 0.21589,-0.0635 0.67309,-0.0635 h 0.5207 q 2.1336,0 3.2893,0.7112 1.15571,0.7112 1.15571,1.9939 0,1.6256 -1.8796,2.4638 1.3462,1.0668 2.1082,2.5781 0.0635,0.127 0.0635,0.2921 0,0.254 -0.1778,0.4445 -0.1651,0.1778 -0.4445,0.1778 -0.3556,0 -0.55881,-0.3302 -1.6764,-2.667 -2.9972,-2.667 -0.3937,0 -0.8509,0.0762 v 2.2987 q 0,0.2667 -0.1905,0.4445 -0.1778,0.1778 -0.43179,0.1778 z m 0.6223,-4.0894 q 1.3716,-0.0889 2.4257,-0.5588 1.0541,-0.4699 1.0541,-1.3081 0,-0.7239 -0.85091,-1.1049 -0.83819,-0.381 -2.3749,-0.381 h -0.254 z m 6.7945,4.0132 q -0.2667,0 -0.4572,-0.1778 -0.1778,-0.1905 -0.1778,-0.4572 v -7.239 q 0,-0.2667 0.1778,-0.4445 0.1905,-0.1905 0.4572,-0.1905 h 5.0673 q 0.2667,0 0.4445,0.1905 0.1778,0.1778 0.1778,0.4445 0,0.2667 -0.1778,0.4572 -0.1778,0.1778 -0.4445,0.1778 h -4.445 v 2.1844 h 3.8608 q 0.2667,0 0.4445,0.1778 0.1778,0.1778 0.1778,0.4445 0,0.2667 -0.1778,0.4572 -0.1778,0.1778 -0.4445,0.1778 h -3.8608 v 2.5273 h 4.4196 q 0.2667,0 0.4445,0.1905 0.1778,0.1778 0.1778,0.4445 0,0.2667 -0.1778,0.4572 -0.1778,0.1778 -0.4445,0.1778 z m 7.53111,0 q -0.2667,0 -0.4572,-0.1778 -0.1778,-0.1905 -0.1778,-0.4572 v -7.239 q 0,-0.2667 0.1778,-0.4445 0.1905,-0.1905 0.4572,-0.1905 h 5.0673 q 0.2667,0 0.4445,0.1905 0.1778,0.1778 0.1778,0.4445 0,0.2667 -0.1778,0.4572 -0.1778,0.1778 -0.4445,0.1778 h -4.445 v 2.1844 h 3.8608 q 0.2667,0 0.4445,0.1778 0.1778,0.1778 0.1778,0.4445 0,0.2667 -0.1778,0.4572 -0.1778,0.1778 -0.4445,0.1778 h -3.8608 v 2.5273 h 4.4196 q 0.2667,0 0.4445,0.1905 0.1778,0.1778 0.1778,0.4445 0,0.2667 -0.1778,0.4572 -0.1778,0.1778 -0.4445,0.1778 z m 7.5184,0.0762 q -0.2413,0 -0.4318,-0.1905 -0.1905,-0.1905 -0.1905,-0.4318 l 0.0127,-7.4041 q 0,-0.254 0.1651,-0.4318 0.1778,-0.1905 0.4445,-0.1905 0.1524,0 0.2921,0.0762 0.1397,0.0635 0.2286,0.1905 l 3.9751,5.7531 v -5.3975 q 0,-0.254 0.17779,-0.4445 0.1905,-0.1905 0.4572,-0.1905 0.25401,0 0.43181,0.1905 0.19049,0.1905 0.19049,0.4445 v 7.4041 q 0,0.2667 -0.17779,0.4445 -0.1778,0.1778 -0.44451,0.1778 -0.1397,0 -0.2921,-0.0762 -0.1397,-0.0762 -0.22859,-0.2032 l -3.9624,-5.7277 -0.0127,5.3848 q 0,0.2667 -0.1905,0.4445 -0.1778,0.1778 -0.4445,0.1778 z"
       id="text2"
       style="font-weight:bold;font-size:12.7px;font-family:'Comic Neue';-inkscape-font-specification:'Comic Neue Bold';text-align:center;text-anchor:middle;fill:#d2c9a5;stroke:#d2c9a5;stroke-width:0.5;stroke-linecap:round;stroke-linejoin:round;paint-order:stroke markers fill"
       aria-label="FULLSCREEN" /></g></svg>
