<?xml version="1.0" encoding="UTF-8" standalone="no"?>
<!-- Created with Inkscape (http://www.inkscape.org/) -->

<svg
   width="183.56311"
   height="108.93066"
   viewBox="0 0 48.567739 28.821238"
   version="1.1"
   id="svg1"
   inkscape:version="1.3 (0e150ed6c4, 2023-07-21)"
   sodipodi:docname="play_button_normal.svg"
   xml:space="preserve"
   xmlns:inkscape="http://www.inkscape.org/namespaces/inkscape"
   xmlns:sodipodi="http://sodipodi.sourceforge.net/DTD/sodipodi-0.dtd"
   xmlns="http://www.w3.org/2000/svg"
   xmlns:svg="http://www.w3.org/2000/svg"><sodipodi:namedview
     id="namedview1"
     pagecolor="#505050"
     bordercolor="#eeeeee"
     borderopacity="1"
     inkscape:showpageshadow="0"
     inkscape:pageopacity="0"
     inkscape:pagecheckerboard="0"
     inkscape:deskcolor="#505050"
     inkscape:document-units="mm"
     inkscape:zoom="5.1096065"
     inkscape:cx="73.097606"
     inkscape:cy="38.261263"
     inkscape:window-width="1920"
     inkscape:window-height="1009"
     inkscape:window-x="-8"
     inkscape:window-y="-8"
     inkscape:window-maximized="1"
     inkscape:current-layer="layer4"
     showgrid="false" /><defs
     id="defs1" /><g
     inkscape:groupmode="layer"
     id="layer4"
     inkscape:label="TEXT BOX"
     transform="translate(-312.5033,-176.62851)"><rect
       style="fill:#ae5d40;stroke:#ae5d40;stroke-width:3;stroke-linecap:round;stroke-linejoin:round;paint-order:stroke markers fill"
       id="rect54"
       width="45.56776"
       height="20.298367"
       x="314.0033"
       y="183.65138"
       rx="10" /><rect
       style="fill:#c77b58;stroke:#c77b58;stroke-width:3;stroke-linecap:round;stroke-linejoin:round;paint-order:stroke markers fill"
       id="rect53"
       width="45.56776"
       height="20.298367"
       x="314.0033"
       y="178.12851"
       rx="10" /><path
       d="m 322.91595,193.24049 q -0.28222,0 -0.49389,-0.19756 -0.21167,-0.19755 -0.21167,-0.49388 v -8.05744 q 0,-0.39511 0.0988,-0.56445 0.0988,-0.18344 0.36689,-0.23989 0.28222,-0.0706 0.90311,-0.0706 2.62466,0 3.92288,0.77611 1.31234,0.77611 1.31234,2.24366 0,1.18534 -0.83256,1.94734 -0.83255,0.762 -2.01789,1.11477 -1.18533,0.35278 -2.35655,0.39511 v 2.45534 q 0,0.29633 -0.19755,0.49388 -0.19756,0.19756 -0.49389,0.19756 z m 0.69144,-4.52966 q 1.38289,-0.0847 2.59644,-0.55034 1.21356,-0.47977 1.21356,-1.524 0,-0.77611 -0.94545,-1.19944 -0.93133,-0.42333 -2.66699,-0.42333 h -0.19756 z m 7.09788,4.51555 q -0.26811,0.0141 -0.47978,-0.19756 -0.21167,-0.21166 -0.21167,-0.47977 v -8.22678 q 0,-0.28222 0.19756,-0.47977 0.21167,-0.21167 0.508,-0.21167 0.28222,0 0.47978,0.21167 0.21166,0.19755 0.21166,0.47977 v 7.47889 l 3.83822,-0.254 q 0.29633,-0.0141 0.49389,0.18344 0.19756,0.18345 0.19756,0.49389 0,0.254 -0.19756,0.47978 -0.18344,0.21166 -0.43744,0.22578 z m 12.46011,0.0282 q -0.508,0 -0.66323,-0.47978 l -1.01599,-2.93511 -2.87867,0.635 -0.91722,2.31422 q -0.0847,0.19756 -0.254,0.32456 -0.15522,0.127 -0.39511,0.127 -0.28222,0 -0.49389,-0.19756 -0.21167,-0.19755 -0.21167,-0.46566 0,-0.18345 0.0988,-0.42334 l 0.56445,-1.41111 q -0.0847,-0.0282 -0.127,-0.0564 -0.36689,-0.18344 -0.36689,-0.62089 0,-0.254 0.14111,-0.43744 0.15522,-0.18345 0.39511,-0.23989 l 0.52211,-0.11289 2.08844,-5.30577 q 0.0847,-0.21167 0.26811,-0.32456 0.18345,-0.11289 0.39511,-0.11289 0.22578,0 0.39511,0.11289 0.16934,0.11289 0.254,0.35278 l 2.80811,8.1421 q 0.0141,0.0282 0.0564,0.16934 0.0423,0.127 0.0423,0.26811 0,0.26811 -0.19755,0.47978 -0.19756,0.19755 -0.508,0.19755 z m -2.14489,-4.72722 -0.762,-2.27189 -1.05833,2.667 z m 4.76956,4.71311 q -0.28222,0 -0.49389,-0.21167 -0.19756,-0.21166 -0.19756,-0.47977 0,-0.11289 0.0141,-0.18345 0.0282,-0.0847 0.0988,-0.21167 l 1.22767,-2.06022 -3.13267,-5.36221 q -0.11288,-0.21167 -0.11288,-0.40923 0,-0.28222 0.19755,-0.47977 0.21167,-0.21167 0.508,-0.21167 0.16933,0 0.32456,0.0988 0.16933,0.0847 0.26811,0.254 l 2.76577,4.72722 2.80811,-4.74133 q 0.0988,-0.16934 0.254,-0.254 0.16933,-0.0847 0.35278,-0.0847 0.26811,0 0.47978,0.21167 0.21166,0.19755 0.21166,0.47977 0,0.127 -0.0282,0.21167 -0.0282,0.0847 -0.11289,0.23989 l -4.82599,8.11388 q -0.0988,0.16934 -0.26812,0.26811 -0.15522,0.0847 -0.33866,0.0847 z"
       id="text1"
       style="font-weight:bold;font-size:14.1111px;font-family:'Comic Neue';-inkscape-font-specification:'Comic Neue Bold';text-align:center;text-anchor:middle;fill:#d2c9a5;stroke:#d2c9a5;stroke-width:0.5;stroke-linecap:round;stroke-linejoin:round;paint-order:stroke markers fill"
       aria-label="PLAY"
       transform="translate(9.1666668e-6)" /></g></svg>
