<?xml version="1.0" encoding="UTF-8" standalone="no"?>
<!-- Created with Inkscape (http://www.inkscape.org/) -->

<svg
   width="366"
   height="108.931"
   viewBox="0 0 96.837499 28.821329"
   version="1.1"
   id="svg1"
   inkscape:version="1.3 (0e150ed6c4, 2023-07-21)"
   sodipodi:docname="play_button_pressed.svg"
   xml:space="preserve"
   inkscape:export-filename="play_button_pressed.svg"
   inkscape:export-xdpi="96"
   inkscape:export-ydpi="96"
   xmlns:inkscape="http://www.inkscape.org/namespaces/inkscape"
   xmlns:sodipodi="http://sodipodi.sourceforge.net/DTD/sodipodi-0.dtd"
   xmlns="http://www.w3.org/2000/svg"
   xmlns:svg="http://www.w3.org/2000/svg"><sodipodi:namedview
     id="namedview1"
     pagecolor="#505050"
     bordercolor="#eeeeee"
     borderopacity="1"
     inkscape:showpageshadow="0"
     inkscape:pageopacity="0"
     inkscape:pagecheckerboard="0"
     inkscape:deskcolor="#505050"
     inkscape:document-units="mm"
     inkscape:zoom="2.2100739"
     inkscape:cx="188.90771"
     inkscape:cy="116.05947"
     inkscape:window-width="1920"
     inkscape:window-height="1009"
     inkscape:window-x="-8"
     inkscape:window-y="-8"
     inkscape:window-maximized="1"
     inkscape:current-layer="layer4"
     showgrid="false" /><defs
     id="defs1" /><g
     inkscape:groupmode="layer"
     id="layer4"
     inkscape:label="TEXT BOX"
     transform="translate(-312.5033,-176.62851)"><rect
       style="fill:#ae5d40;stroke:#ae5d40;stroke-width:4.17337;stroke-linecap:round;stroke-linejoin:round;paint-order:stroke markers fill"
       id="rect54"
       width="92.381432"
       height="19.375973"
       x="314.73132"
       y="183.98709"
       rx="5.34654" /><rect
       style="fill:#c77b58;stroke:#c77b58;stroke-width:4.17337;stroke-linecap:round;stroke-linejoin:round;paint-order:stroke markers fill"
       id="rect53"
       width="92.381432"
       height="19.375973"
       x="314.73132"
       y="181.36099"
       rx="7.8896642" /><path
       d="m 348.43795,195.2827 q -0.254,0 -0.4445,-0.1778 -0.1905,-0.1778 -0.1905,-0.4445 v -7.2517 q 0,-0.3556 0.0889,-0.508 0.0889,-0.1651 0.3302,-0.2159 0.254,-0.0635 0.8128,-0.0635 2.3622,0 3.5306,0.6985 1.18109,0.6985 1.18109,2.0193 0,1.0668 -0.74929,1.7526 -0.7493,0.6858 -1.8161,1.0033 -1.0668,0.3175 -2.1209,0.3556 v 2.2098 q 0,0.2667 -0.1778,0.4445 -0.1778,0.1778 -0.4445,0.1778 z m 0.6223,-4.0767 q 1.2446,-0.0762 2.3368,-0.4953 1.0922,-0.4318 1.0922,-1.3716 0,-0.6985 -0.8509,-1.0795 -0.8382,-0.381 -2.4003,-0.381 h -0.1778 z m 6.38809,4.064 q -0.2413,0.0127 -0.4318,-0.1778 -0.1905,-0.1905 -0.1905,-0.4318 v -7.4041 q 0,-0.254 0.1778,-0.4318 0.1905,-0.1905 0.4572,-0.1905 0.254,0 0.4318,0.1905 0.1905,0.1778 0.1905,0.4318 v 6.731 l 3.4544,-0.2286 q 0.2667,-0.0127 0.4445,0.1651 0.1778,0.1651 0.1778,0.4445 0,0.2286 -0.1778,0.4318 -0.1651,0.1905 -0.3937,0.2032 z m 11.21411,0.0254 q -0.4572,0 -0.5969,-0.4318 l -0.9144,-2.6416 -2.5908,0.5715 -0.8255,2.0828 q -0.0762,0.1778 -0.2286,0.2921 -0.1397,0.1143 -0.3556,0.1143 -0.254,0 -0.4445,-0.1778 -0.1905,-0.1778 -0.1905,-0.4191 0,-0.1651 0.0889,-0.381 l 0.508,-1.27 q -0.0762,-0.0254 -0.1143,-0.0508 -0.3302,-0.1651 -0.3302,-0.5588 0,-0.2286 0.127,-0.3937 0.1397,-0.1651 0.3556,-0.2159 l 0.4699,-0.1016 1.8796,-4.7752 q 0.0762,-0.1905 0.2413,-0.2921 0.1651,-0.1016 0.3556,-0.1016 0.2032,0 0.3556,0.1016 0.1524,0.1016 0.2286,0.3175 l 2.5273,7.3279 q 0.0127,0.0254 0.0508,0.1524 0.0381,0.1143 0.0381,0.2413 0,0.2413 -0.1778,0.4318 -0.1778,0.1778 -0.4572,0.1778 z m -1.9304,-4.2545 -0.6858,-2.0447 -0.9525,2.4003 z m 4.2926,4.2418 q -0.254,0 -0.4445,-0.1905 -0.1778,-0.1905 -0.1778,-0.4318 0,-0.1016 0.0127,-0.1651 0.0254,-0.0762 0.0889,-0.1905 l 1.1049,-1.8542 -2.8194,-4.826 q -0.1016,-0.1905 -0.1016,-0.3683 0,-0.254 0.1778,-0.4318 0.1905,-0.1905 0.4572,-0.1905 0.1524,0 0.2921,0.0889 0.1524,0.0762 0.2413,0.2286 l 2.4892,4.2545 2.5273,-4.2672 q 0.0889,-0.1524 0.2286,-0.2286 0.1524,-0.0762 0.3175,-0.0762 0.2413,0 0.4318,0.1905 0.1905,0.1778 0.1905,0.4318 0,0.1143 -0.0254,0.1905 -0.0254,0.0762 -0.1016,0.2159 l -4.3434,7.3025 q -0.0889,0.1524 -0.2413,0.2413 -0.1397,0.0762 -0.3048,0.0762 z"
       id="text1"
       style="font-weight:bold;font-size:12.7px;font-family:'Comic Neue';-inkscape-font-specification:'Comic Neue Bold';text-align:center;text-anchor:middle;fill:#d2c9a5;stroke:#d2c9a5;stroke-width:0.5;stroke-linecap:round;stroke-linejoin:round;paint-order:stroke markers fill"
       aria-label="PLAY" /></g></svg>
