<?xml version="1.0" encoding="UTF-8"?>
<svg xmlns="http://www.w3.org/2000/svg" xmlns:xlink="http://www.w3.org/1999/xlink" width="16px" height="16px" viewBox="0 0 16 16" version="1.1">
<defs>
<filter id="alpha" filterUnits="objectBoundingBox" x="0%" y="0%" width="100%" height="100%">
  <feColorMatrix type="matrix" in="SourceGraphic" values="0 0 0 0 1 0 0 0 0 1 0 0 0 0 1 0 0 0 1 0"/>
</filter>
<mask id="mask0">
  <g filter="url(#alpha)">
<rect x="0" y="0" width="16" height="16" style="fill:rgb(0%,0%,0%);fill-opacity:0.14902;stroke:none;"/>
  </g>
</mask>
<clipPath id="clip1">
  <rect x="0" y="0" width="16" height="16"/>
</clipPath>
<g id="surface5" clip-path="url(#clip1)">
<path style=" stroke:none;fill-rule:nonzero;fill:rgb(0%,0%,0%);fill-opacity:1;" d="M 15.5 13.652344 L 15 13.484375 L 15 8.015625 L 15.5 7.847656 Z M 15.5 13.652344 "/>
</g>
<mask id="mask1">
  <g filter="url(#alpha)">
<rect x="0" y="0" width="16" height="16" style="fill:rgb(0%,0%,0%);fill-opacity:0.2;stroke:none;"/>
  </g>
</mask>
<clipPath id="clip2">
  <rect x="0" y="0" width="16" height="16"/>
</clipPath>
<g id="surface8" clip-path="url(#clip2)">
<path style=" stroke:none;fill-rule:nonzero;fill:rgb(100%,100%,100%);fill-opacity:1;" d="M 4.25 9.5 L 8.75 9.5 L 8.75 12 L 4.25 12 Z M 4.25 9.5 "/>
</g>
</defs>
<g id="surface1">
<path style=" stroke:none;fill-rule:nonzero;fill:rgb(31.372549%,42.352941%,49.803922%);fill-opacity:1;" d="M 3.75 0.5 C 2.371094 0.5 1.25 1.621094 1.25 3 C 1.25 4.378906 2.371094 5.5 3.75 5.5 C 5.128906 5.5 6.25 4.378906 6.25 3 C 6.25 1.621094 5.128906 0.5 3.75 0.5 Z M 2.5 3.25 C 2.363281 3.25 2.25 3.136719 2.25 3 C 2.25 2.863281 2.363281 2.75 2.5 2.75 C 2.636719 2.75 2.75 2.863281 2.75 3 C 2.75 3.136719 2.636719 3.25 2.5 3.25 Z M 3.75 4.5 C 3.613281 4.5 3.5 4.386719 3.5 4.25 C 3.5 4.113281 3.613281 4 3.75 4 C 3.886719 4 4 4.113281 4 4.25 C 4 4.386719 3.886719 4.5 3.75 4.5 Z M 3.75 2 C 3.613281 2 3.5 1.886719 3.5 1.75 C 3.5 1.613281 3.613281 1.5 3.75 1.5 C 3.886719 1.5 4 1.613281 4 1.75 C 4 1.886719 3.886719 2 3.75 2 Z M 5 3.25 C 4.863281 3.25 4.75 3.136719 4.75 3 C 4.75 2.863281 4.863281 2.75 5 2.75 C 5.136719 2.75 5.25 2.863281 5.25 3 C 5.25 3.136719 5.136719 3.25 5 3.25 Z M 5 3.25 "/>
<path style=" stroke:none;fill-rule:nonzero;fill:rgb(31.372549%,42.352941%,49.803922%);fill-opacity:1;" d="M 9.25 0.5 C 7.871094 0.5 6.75 1.621094 6.75 3 C 6.75 4.378906 7.871094 5.5 9.25 5.5 C 10.628906 5.5 11.75 4.378906 11.75 3 C 11.75 1.621094 10.628906 0.5 9.25 0.5 Z M 8 3.25 C 7.863281 3.25 7.75 3.136719 7.75 3 C 7.75 2.863281 7.863281 2.75 8 2.75 C 8.136719 2.75 8.25 2.863281 8.25 3 C 8.25 3.136719 8.136719 3.25 8 3.25 Z M 9.25 4.5 C 9.113281 4.5 9 4.386719 9 4.25 C 9 4.113281 9.113281 4 9.25 4 C 9.386719 4 9.5 4.113281 9.5 4.25 C 9.5 4.386719 9.386719 4.5 9.25 4.5 Z M 9.25 2 C 9.113281 2 9 1.886719 9 1.75 C 9 1.613281 9.113281 1.5 9.25 1.5 C 9.386719 1.5 9.5 1.613281 9.5 1.75 C 9.5 1.886719 9.386719 2 9.25 2 Z M 10.5 3.25 C 10.363281 3.25 10.25 3.136719 10.25 3 C 10.25 2.863281 10.363281 2.75 10.5 2.75 C 10.636719 2.75 10.75 2.863281 10.75 3 C 10.75 3.136719 10.636719 3.25 10.5 3.25 Z M 10.5 3.25 "/>
<path style=" stroke:none;fill-rule:nonzero;fill:rgb(27.058824%,66.666667%,72.156863%);fill-opacity:1;" d="M 12.5 15 C 12.5 15.277344 12.277344 15.5 12 15.5 L 1 15.5 C 0.722656 15.5 0.5 15.277344 0.5 15 L 0.5 6.5 C 0.5 6.222656 0.722656 6 1 6 L 12 6 C 12.277344 6 12.5 6.222656 12.5 6.5 Z M 12.5 15 "/>
<path style=" stroke:none;fill-rule:nonzero;fill:rgb(97.647059%,92.156863%,69.803922%);fill-opacity:1;" d="M 13 12.820312 L 14.5 13.320312 L 14.5 8.179688 L 13 8.679688 Z M 13 12.820312 "/>
<path style=" stroke:none;fill-rule:nonzero;fill:rgb(97.647059%,92.156863%,69.803922%);fill-opacity:1;" d="M 15 8.015625 L 15 13.484375 L 15.5 13.652344 L 15.5 7.847656 Z M 15 8.015625 "/>
<path style=" stroke:none;fill-rule:nonzero;fill:rgb(22.352941%,25.882353%,25.098039%);fill-opacity:1;" d="M 9.75 3 C 9.75 3.414062 10.085938 3.75 10.5 3.75 C 10.914062 3.75 11.25 3.414062 11.25 3 C 11.25 2.585938 10.914062 2.25 10.5 2.25 C 10.085938 2.25 9.75 2.585938 9.75 3 Z M 10.5 2.75 C 10.636719 2.75 10.75 2.863281 10.75 3 C 10.75 3.136719 10.636719 3.25 10.5 3.25 C 10.363281 3.25 10.25 3.136719 10.25 3 C 10.25 2.863281 10.363281 2.75 10.5 2.75 Z M 10.5 2.75 "/>
<path style=" stroke:none;fill-rule:nonzero;fill:rgb(22.352941%,25.882353%,25.098039%);fill-opacity:1;" d="M 9.25 2.5 C 9.664062 2.5 10 2.164062 10 1.75 C 10 1.335938 9.664062 1 9.25 1 C 8.835938 1 8.5 1.335938 8.5 1.75 C 8.5 2.164062 8.835938 2.5 9.25 2.5 Z M 9.25 1.5 C 9.386719 1.5 9.5 1.613281 9.5 1.75 C 9.5 1.886719 9.386719 2 9.25 2 C 9.113281 2 9 1.886719 9 1.75 C 9 1.613281 9.113281 1.5 9.25 1.5 Z M 9.25 1.5 "/>
<path style=" stroke:none;fill-rule:nonzero;fill:rgb(22.352941%,25.882353%,25.098039%);fill-opacity:1;" d="M 9.25 3.5 C 8.835938 3.5 8.5 3.835938 8.5 4.25 C 8.5 4.664062 8.835938 5 9.25 5 C 9.664062 5 10 4.664062 10 4.25 C 10 3.835938 9.664062 3.5 9.25 3.5 Z M 9.25 4.5 C 9.113281 4.5 9 4.386719 9 4.25 C 9 4.113281 9.113281 4 9.25 4 C 9.386719 4 9.5 4.113281 9.5 4.25 C 9.5 4.386719 9.386719 4.5 9.25 4.5 Z M 9.25 4.5 "/>
<path style=" stroke:none;fill-rule:nonzero;fill:rgb(22.352941%,25.882353%,25.098039%);fill-opacity:1;" d="M 8.75 3 C 8.75 2.585938 8.414062 2.25 8 2.25 C 7.585938 2.25 7.25 2.585938 7.25 3 C 7.25 3.414062 7.585938 3.75 8 3.75 C 8.414062 3.75 8.75 3.414062 8.75 3 Z M 7.75 3 C 7.75 2.863281 7.863281 2.75 8 2.75 C 8.136719 2.75 8.25 2.863281 8.25 3 C 8.25 3.136719 8.136719 3.25 8 3.25 C 7.863281 3.25 7.75 3.136719 7.75 3 Z M 7.75 3 "/>
<path style=" stroke:none;fill-rule:nonzero;fill:rgb(22.352941%,25.882353%,25.098039%);fill-opacity:1;" d="M 5.75 3 C 5.75 2.585938 5.414062 2.25 5 2.25 C 4.585938 2.25 4.25 2.585938 4.25 3 C 4.25 3.414062 4.585938 3.75 5 3.75 C 5.414062 3.75 5.75 3.414062 5.75 3 Z M 5 3.25 C 4.863281 3.25 4.75 3.136719 4.75 3 C 4.75 2.863281 4.863281 2.75 5 2.75 C 5.136719 2.75 5.25 2.863281 5.25 3 C 5.25 3.136719 5.136719 3.25 5 3.25 Z M 5 3.25 "/>
<path style=" stroke:none;fill-rule:nonzero;fill:rgb(22.352941%,25.882353%,25.098039%);fill-opacity:1;" d="M 3.75 2.5 C 4.164062 2.5 4.5 2.164062 4.5 1.75 C 4.5 1.335938 4.164062 1 3.75 1 C 3.335938 1 3 1.335938 3 1.75 C 3 2.164062 3.335938 2.5 3.75 2.5 Z M 3.75 1.5 C 3.886719 1.5 4 1.613281 4 1.75 C 4 1.886719 3.886719 2 3.75 2 C 3.613281 2 3.5 1.886719 3.5 1.75 C 3.5 1.613281 3.613281 1.5 3.75 1.5 Z M 3.75 1.5 "/>
<path style=" stroke:none;fill-rule:nonzero;fill:rgb(22.352941%,25.882353%,25.098039%);fill-opacity:1;" d="M 3.75 3.5 C 3.335938 3.5 3 3.835938 3 4.25 C 3 4.664062 3.335938 5 3.75 5 C 4.164062 5 4.5 4.664062 4.5 4.25 C 4.5 3.835938 4.164062 3.5 3.75 3.5 Z M 3.75 4.5 C 3.613281 4.5 3.5 4.386719 3.5 4.25 C 3.5 4.113281 3.613281 4 3.75 4 C 3.886719 4 4 4.113281 4 4.25 C 4 4.386719 3.886719 4.5 3.75 4.5 Z M 3.75 4.5 "/>
<path style=" stroke:none;fill-rule:nonzero;fill:rgb(22.352941%,25.882353%,25.098039%);fill-opacity:1;" d="M 3.25 3 C 3.25 2.585938 2.914062 2.25 2.5 2.25 C 2.085938 2.25 1.75 2.585938 1.75 3 C 1.75 3.414062 2.085938 3.75 2.5 3.75 C 2.914062 3.75 3.25 3.414062 3.25 3 Z M 2.5 3.25 C 2.363281 3.25 2.25 3.136719 2.25 3 C 2.25 2.863281 2.363281 2.75 2.5 2.75 C 2.636719 2.75 2.75 2.863281 2.75 3 C 2.75 3.136719 2.636719 3.25 2.5 3.25 Z M 2.5 3.25 "/>
<path style=" stroke:none;fill-rule:nonzero;fill:rgb(22.352941%,25.882353%,25.098039%);fill-opacity:1;" d="M 15.894531 7.296875 C 15.832031 7.25 15.746094 7.238281 15.671875 7.261719 L 13 8.152344 L 13 6.5 C 13 5.945312 12.554688 5.5 12 5.5 L 10.90625 5.5 C 11.714844 4.964844 12.25 4.042969 12.25 3 C 12.25 1.34375 10.90625 0 9.25 0 C 8.019531 0 6.960938 0.742188 6.5 1.804688 C 6.039062 0.742188 4.980469 0 3.75 0 C 2.09375 0 0.75 1.34375 0.75 3 C 0.75 4.042969 1.285156 4.964844 2.09375 5.5 L 1 5.5 C 0.445312 5.5 0 5.945312 0 6.5 L 0 15 C 0 15.554688 0.445312 16 1 16 L 12 16 C 12.554688 16 13 15.554688 13 15 L 13 13.347656 L 15.671875 14.238281 C 15.695312 14.246094 15.722656 14.25 15.75 14.25 C 15.800781 14.25 15.851562 14.234375 15.894531 14.203125 C 15.960938 14.15625 16 14.082031 16 14 L 16 7.5 C 16 7.417969 15.960938 7.34375 15.894531 7.296875 Z M 9.25 0.5 C 10.628906 0.5 11.75 1.621094 11.75 3 C 11.75 4.378906 10.628906 5.5 9.25 5.5 C 7.871094 5.5 6.75 4.378906 6.75 3 C 6.75 1.621094 7.871094 0.5 9.25 0.5 Z M 7.59375 5.5 L 5.40625 5.5 C 5.886719 5.183594 6.269531 4.730469 6.5 4.195312 C 6.730469 4.730469 7.113281 5.183594 7.59375 5.5 Z M 1.25 3 C 1.25 1.621094 2.371094 0.5 3.75 0.5 C 5.128906 0.5 6.25 1.621094 6.25 3 C 6.25 4.378906 5.128906 5.5 3.75 5.5 C 2.371094 5.5 1.25 4.378906 1.25 3 Z M 12.5 15 C 12.5 15.277344 12.277344 15.5 12 15.5 L 1 15.5 C 0.722656 15.5 0.5 15.277344 0.5 15 L 0.5 6.5 C 0.5 6.222656 0.722656 6 1 6 L 12 6 C 12.277344 6 12.5 6.222656 12.5 6.5 Z M 14.5 13.320312 L 13 12.820312 L 13 8.679688 L 14.5 8.179688 Z M 15.5 13.652344 L 15 13.484375 L 15 8.015625 L 15.5 7.847656 Z M 15.5 13.652344 "/>
<path style=" stroke:none;fill-rule:nonzero;fill:rgb(22.352941%,25.882353%,25.098039%);fill-opacity:1;" d="M 9 9 L 4 9 C 3.863281 9 3.75 9.113281 3.75 9.25 L 3.75 12.25 C 3.75 12.386719 3.863281 12.5 4 12.5 L 9 12.5 C 9.136719 12.5 9.25 12.386719 9.25 12.25 L 9.25 9.25 C 9.25 9.113281 9.136719 9 9 9 Z M 8.75 12 L 4.25 12 L 4.25 9.5 L 8.75 9.5 Z M 8.75 12 "/>
<use xlink:href="#surface5" mask="url(#mask0)"/>
<use xlink:href="#surface8" mask="url(#mask1)"/>
</g>
</svg>
